# Tiled2Unity generated file. Do not modify by hand.
# Wavefront file for 'Level4_mesh_0003.obj'

# Vertices (Count = 104)
v -1152 -288 0
v -1200 -288 0
v -1200 -240 0
v -1152 -240 0
v -1200 -288 0
v -1248 -288 0
v -1248 -240 0
v -1200 -240 0
v -1152 -336 0
v -1200 -336 0
v -1200 -288 0
v -1152 -288 0
v -1200 -336 0
v -1248 -336 0
v -1248 -288 0
v -1200 -288 0
v -1152 -384 0
v -1200 -384 0
v -1200 -336 0
v -1152 -336 0
v -1200 -384 0
v -1248 -384 0
v -1248 -336 0
v -1200 -336 0
v -1200 -816 0
v -1248 -816 0
v -1248 -768 0
v -1200 -768 0
v -1248 -816 0
v -1296 -816 0
v -1296 -768 0
v -1248 -768 0
v -1296 -816 0
v -1344 -816 0
v -1344 -768 0
v -1296 -768 0
v -1344 -816 0
v -1392 -816 0
v -1392 -768 0
v -1344 -768 0
v -1392 -816 0
v -1440 -816 0
v -1440 -768 0
v -1392 -768 0
v -1440 -816 0
v -1488 -816 0
v -1488 -768 0
v -1440 -768 0
v -1200 -864 0
v -1248 -864 0
v -1248 -816 0
v -1200 -816 0
v -1248 -864 0
v -1296 -864 0
v -1296 -816 0
v -1248 -816 0
v -1296 -864 0
v -1344 -864 0
v -1344 -816 0
v -1296 -816 0
v -1344 -864 0
v -1392 -864 0
v -1392 -816 0
v -1344 -816 0
v -1392 -864 0
v -1440 -864 0
v -1440 -816 0
v -1392 -816 0
v -1440 -864 0
v -1488 -864 0
v -1488 -816 0
v -1440 -816 0
v -1296 -1200 0
v -1344 -1200 0
v -1344 -1152 0
v -1296 -1152 0
v -1344 -1200 0
v -1392 -1200 0
v -1392 -1152 0
v -1344 -1152 0
v -1296 -1248 0
v -1344 -1248 0
v -1344 -1200 0
v -1296 -1200 0
v -1344 -1248 0
v -1392 -1248 0
v -1392 -1200 0
v -1344 -1200 0
v -1296 -1296 0
v -1344 -1296 0
v -1344 -1248 0
v -1296 -1248 0
v -1344 -1296 0
v -1392 -1296 0
v -1392 -1248 0
v -1344 -1248 0
v -1296 -1344 0
v -1344 -1344 0
v -1344 -1296 0
v -1296 -1296 0
v -1344 -1344 0
v -1392 -1344 0
v -1392 -1296 0
v -1344 -1296 0

# Texture cooridinates (Count = 22)
vt 0.875 0.875
vt 0.9375 0.875
vt 0.9375 1
vt 0.875 1
vt 1 0.875
vt 1 1
vt 0.875 0.75
vt 0.9375 0.75
vt 1 0.75
vt 0.25 0.25
vt 0.3125 0.25
vt 0.3125 0.375
vt 0.25 0.375
vt 0.375 0.625
vt 0.4375 0.625
vt 0.4375 0.75
vt 0.375 0.75
vt 0.5 0.625
vt 0.5 0.75
vt 0.375 0.5
vt 0.4375 0.5
vt 0.5 0.5

# Normal
vn 0 0 -1

# Mesh description
g Level4_mesh_0003

# Faces
f 1/1/1 2/2/1 3/3/1 4/4/1
f 5/2/1 6/5/1 7/6/1 8/3/1
f 9/7/1 10/8/1 11/2/1 12/1/1
f 13/8/1 14/9/1 15/5/1 16/2/1
f 17/7/1 18/8/1 19/2/1 20/1/1
f 21/8/1 22/9/1 23/5/1 24/2/1
f 25/10/1 26/11/1 27/12/1 28/13/1
f 29/10/1 30/11/1 31/12/1 32/13/1
f 33/10/1 34/11/1 35/12/1 36/13/1
f 37/10/1 38/11/1 39/12/1 40/13/1
f 41/10/1 42/11/1 43/12/1 44/13/1
f 45/10/1 46/11/1 47/12/1 48/13/1
f 49/10/1 50/11/1 51/12/1 52/13/1
f 53/10/1 54/11/1 55/12/1 56/13/1
f 57/10/1 58/11/1 59/12/1 60/13/1
f 61/10/1 62/11/1 63/12/1 64/13/1
f 65/10/1 66/11/1 67/12/1 68/13/1
f 69/10/1 70/11/1 71/12/1 72/13/1
f 73/14/1 74/15/1 75/16/1 76/17/1
f 77/15/1 78/18/1 79/19/1 80/16/1
f 81/20/1 82/21/1 83/15/1 84/14/1
f 85/21/1 86/22/1 87/18/1 88/15/1
f 89/14/1 90/15/1 91/16/1 92/17/1
f 93/15/1 94/18/1 95/19/1 96/16/1
f 97/20/1 98/21/1 99/15/1 100/14/1
f 101/21/1 102/22/1 103/18/1 104/15/1

