# Tiled2Unity generated file. Do not modify by hand.
# Wavefront file for 'town_mesh_0003.obj'

# Vertices (Count = 440)
v -64 -32 0
v -96 -32 0
v -96 0 0
v -64 0 0
v -96 -32 0
v -128 -32 0
v -128 0 0
v -96 0 0
v -128 -32 0
v -160 -32 0
v -160 0 0
v -128 0 0
v -160 -32 0
v -192 -32 0
v -192 0 0
v -160 0 0
v -192 -32 0
v -224 -32 0
v -224 0 0
v -192 0 0
v -224 -32 0
v -256 -32 0
v -256 0 0
v -224 0 0
v -256 -32 0
v -288 -32 0
v -288 0 0
v -256 0 0
v -288 -32 0
v -320 -32 0
v -320 0 0
v -288 0 0
v -320 -32 0
v -352 -32 0
v -352 0 0
v -320 0 0
v -448 -32 0
v -480 -32 0
v -480 0 0
v -448 0 0
v -480 -32 0
v -512 -32 0
v -512 0 0
v -480 0 0
v -512 -32 0
v -544 -32 0
v -544 0 0
v -512 0 0
v -544 -32 0
v -576 -32 0
v -576 0 0
v -544 0 0
v -96 -64 0
v -128 -64 0
v -128 -32 0
v -96 -32 0
v -128 -64 0
v -160 -64 0
v -160 -32 0
v -128 -32 0
v -160 -64 0
v -192 -64 0
v -192 -32 0
v -160 -32 0
v -192 -64 0
v -224 -64 0
v -224 -32 0
v -192 -32 0
v -224 -64 0
v -256 -64 0
v -256 -32 0
v -224 -32 0
v -256 -64 0
v -288 -64 0
v -288 -32 0
v -256 -32 0
v -288 -64 0
v -320 -64 0
v -320 -32 0
v -288 -32 0
v -320 -64 0
v -352 -64 0
v -352 -32 0
v -320 -32 0
v -352 -64 0
v -384 -64 0
v -384 -32 0
v -352 -32 0
v -544 -64 0
v -576 -64 0
v -576 -32 0
v -544 -32 0
v -96 -96 0
v -128 -96 0
v -128 -64 0
v -96 -64 0
v -128 -96 0
v -160 -96 0
v -160 -64 0
v -128 -64 0
v -160 -96 0
v -192 -96 0
v -192 -64 0
v -160 -64 0
v -192 -96 0
v -224 -96 0
v -224 -64 0
v -192 -64 0
v -224 -96 0
v -256 -96 0
v -256 -64 0
v -224 -64 0
v -256 -96 0
v -288 -96 0
v -288 -64 0
v -256 -64 0
v -288 -96 0
v -320 -96 0
v -320 -64 0
v -288 -64 0
v -320 -96 0
v -352 -96 0
v -352 -64 0
v -320 -64 0
v -352 -96 0
v -384 -96 0
v -384 -64 0
v -352 -64 0
v -416 -96 0
v -448 -96 0
v -448 -64 0
v -416 -64 0
v -480 -96 0
v -512 -96 0
v -512 -64 0
v -480 -64 0
v -512 -96 0
v -544 -96 0
v -544 -64 0
v -512 -64 0
v -128 -128 0
v -160 -128 0
v -160 -96 0
v -128 -96 0
v -160 -128 0
v -192 -128 0
v -192 -96 0
v -160 -96 0
v -480 -128 0
v -512 -128 0
v -512 -96 0
v -480 -96 0
v -512 -128 0
v -544 -128 0
v -544 -96 0
v -512 -96 0
v 0 -192 0
v -32 -192 0
v -32 -160 0
v 0 -160 0
v -32 -192 0
v -64 -192 0
v -64 -160 0
v -32 -160 0
v -224 -192 0
v -256 -192 0
v -256 -160 0
v -224 -160 0
v -256 -192 0
v -288 -192 0
v -288 -160 0
v -256 -160 0
v -320 -192 0
v -352 -192 0
v -352 -160 0
v -320 -160 0
v -352 -192 0
v -384 -192 0
v -384 -160 0
v -352 -160 0
v -448 -192 0
v -480 -192 0
v -480 -160 0
v -448 -160 0
v -512 -192 0
v -544 -192 0
v -544 -160 0
v -512 -160 0
v -544 -192 0
v -576 -192 0
v -576 -160 0
v -544 -160 0
v -576 -192 0
v -608 -192 0
v -608 -160 0
v -576 -160 0
v 0 -224 0
v -32 -224 0
v -32 -192 0
v 0 -192 0
v -32 -224 0
v -64 -224 0
v -64 -192 0
v -32 -192 0
v -96 -224 0
v -128 -224 0
v -128 -192 0
v -96 -192 0
v -224 -224 0
v -256 -224 0
v -256 -192 0
v -224 -192 0
v -256 -224 0
v -288 -224 0
v -288 -192 0
v -256 -192 0
v -288 -224 0
v -320 -224 0
v -320 -192 0
v -288 -192 0
v -320 -224 0
v -352 -224 0
v -352 -192 0
v -320 -192 0
v -352 -224 0
v -384 -224 0
v -384 -192 0
v -352 -192 0
v -544 -224 0
v -576 -224 0
v -576 -192 0
v -544 -192 0
v 0 -288 0
v -32 -288 0
v -32 -256 0
v 0 -256 0
v -32 -288 0
v -64 -288 0
v -64 -256 0
v -32 -256 0
v -384 -288 0
v -416 -288 0
v -416 -256 0
v -384 -256 0
v -416 -288 0
v -448 -288 0
v -448 -256 0
v -416 -256 0
v -512 -288 0
v -544 -288 0
v -544 -256 0
v -512 -256 0
v -576 -288 0
v -608 -288 0
v -608 -256 0
v -576 -256 0
v 0 -320 0
v -32 -320 0
v -32 -288 0
v 0 -288 0
v -32 -320 0
v -64 -320 0
v -64 -288 0
v -32 -288 0
v -64 -320 0
v -96 -320 0
v -96 -288 0
v -64 -288 0
v -160 -320 0
v -192 -320 0
v -192 -288 0
v -160 -288 0
v -608 -320 0
v -640 -320 0
v -640 -288 0
v -608 -288 0
v 0 -352 0
v -32 -352 0
v -32 -320 0
v 0 -320 0
v -32 -352 0
v -64 -352 0
v -64 -320 0
v -32 -320 0
v -64 -352 0
v -96 -352 0
v -96 -320 0
v -64 -320 0
v -320 -352 0
v -352 -352 0
v -352 -320 0
v -320 -320 0
v -384 -352 0
v -416 -352 0
v -416 -320 0
v -384 -320 0
v -416 -352 0
v -448 -352 0
v -448 -320 0
v -416 -320 0
v -448 -352 0
v -480 -352 0
v -480 -320 0
v -448 -320 0
v -544 -352 0
v -576 -352 0
v -576 -320 0
v -544 -320 0
v -576 -352 0
v -608 -352 0
v -608 -320 0
v -576 -320 0
v -608 -352 0
v -640 -352 0
v -640 -320 0
v -608 -320 0
v 0 -384 0
v -32 -384 0
v -32 -352 0
v 0 -352 0
v -224 -384 0
v -256 -384 0
v -256 -352 0
v -224 -352 0
v -352 -384 0
v -384 -384 0
v -384 -352 0
v -352 -352 0
v -384 -384 0
v -416 -384 0
v -416 -352 0
v -384 -352 0
v -544 -384 0
v -576 -384 0
v -576 -352 0
v -544 -352 0
v 0 -416 0
v -32 -416 0
v -32 -384 0
v 0 -384 0
v -32 -416 0
v -64 -416 0
v -64 -384 0
v -32 -384 0
v -320 -416 0
v -352 -416 0
v -352 -384 0
v -320 -384 0
v -352 -416 0
v -384 -416 0
v -384 -384 0
v -352 -384 0
v -384 -416 0
v -416 -416 0
v -416 -384 0
v -384 -384 0
v -544 -416 0
v -576 -416 0
v -576 -384 0
v -544 -384 0
v 0 -448 0
v -32 -448 0
v -32 -416 0
v 0 -416 0
v -32 -448 0
v -64 -448 0
v -64 -416 0
v -32 -416 0
v -64 -448 0
v -96 -448 0
v -96 -416 0
v -64 -416 0
v -96 -448 0
v -128 -448 0
v -128 -416 0
v -96 -416 0
v -128 -448 0
v -160 -448 0
v -160 -416 0
v -128 -416 0
v -416 -448 0
v -448 -448 0
v -448 -416 0
v -416 -416 0
v -576 -448 0
v -608 -448 0
v -608 -416 0
v -576 -416 0
v -608 -448 0
v -640 -448 0
v -640 -416 0
v -608 -416 0
v 0 -480 0
v -32 -480 0
v -32 -448 0
v 0 -448 0
v -32 -480 0
v -64 -480 0
v -64 -448 0
v -32 -448 0
v -64 -480 0
v -96 -480 0
v -96 -448 0
v -64 -448 0
v -96 -480 0
v -128 -480 0
v -128 -448 0
v -96 -448 0
v -128 -480 0
v -160 -480 0
v -160 -448 0
v -128 -448 0
v -160 -480 0
v -192 -480 0
v -192 -448 0
v -160 -448 0
v -192 -480 0
v -224 -480 0
v -224 -448 0
v -192 -448 0
v -224 -480 0
v -256 -480 0
v -256 -448 0
v -224 -448 0
v -384 -480 0
v -416 -480 0
v -416 -448 0
v -384 -448 0
v -448 -480 0
v -480 -480 0
v -480 -448 0
v -448 -448 0
v -480 -480 0
v -512 -480 0
v -512 -448 0
v -480 -448 0
v -576 -480 0
v -608 -480 0
v -608 -448 0
v -576 -448 0

# Texture cooridinates (Count = 65)
vt 0.65 0.5
vt 0.7 0.5
vt 0.7 0.5833334
vt 0.65 0.5833334
vt 0.15 0.6666666
vt 0.2 0.6666666
vt 0.2 0.75
vt 0.15 0.75
vt 0.25 0.6666666
vt 0.25 0.75
vt 0.6 0.3333333
vt 0.65 0.3333333
vt 0.65 0.4166667
vt 0.6 0.4166667
vt 0.45 0.5833334
vt 0.5 0.5833334
vt 0.5 0.6666666
vt 0.45 0.6666666
vt 0.55 0.5833334
vt 0.6 0.5833334
vt 0.6 0.6666666
vt 0.55 0.6666666
vt 0.35 0.6666666
vt 0.4 0.6666666
vt 0.4 0.75
vt 0.35 0.75
vt 0.15 0.5833334
vt 0.2 0.5833334
vt 0.25 0.5833334
vt 0.55 0.5
vt 0.6 0.5
vt 0.35 0.5833334
vt 0.4 0.5833334
vt 0.15 0.5
vt 0.2 0.5
vt 0.25 0.5
vt 0.45 0.3333333
vt 0.5 0.3333333
vt 0.5 0.4166667
vt 0.45 0.4166667
vt 0.65 0.6666666
vt 0.75 0.1666667
vt 0.8 0.1666667
vt 0.8 0.25
vt 0.75 0.25
vt 0.85 0.1666667
vt 0.85 0.25
vt 0.55 0.75
vt 0.6 0.75
vt 0.6 0.8333333
vt 0.55 0.8333333
vt 0.4 0.4166667
vt 0.45 0.5
vt 0.4 0.5
vt 0.75 0.08333331
vt 0.8 0.08333331
vt 0.85 0.08333331
vt 0.3 0.5
vt 0.35 0.5
vt 0.3 0.5833334
vt 0.4 0.3333333
vt 0.3 0.3333333
vt 0.35 0.3333333
vt 0.35 0.4166667
vt 0.3 0.4166667

# Normal
vn 0 0 -1

# Mesh description
g town_mesh_0003

# Faces
f 1/1/1 2/2/1 3/3/1 4/4/1
f 5/1/1 6/2/1 7/3/1 8/4/1
f 9/1/1 10/2/1 11/3/1 12/4/1
f 13/1/1 14/2/1 15/3/1 16/4/1
f 17/1/1 18/2/1 19/3/1 20/4/1
f 21/1/1 22/2/1 23/3/1 24/4/1
f 25/1/1 26/2/1 27/3/1 28/4/1
f 29/5/1 30/6/1 31/7/1 32/8/1
f 33/6/1 34/9/1 35/10/1 36/7/1
f 37/11/1 38/12/1 39/13/1 40/14/1
f 41/11/1 42/12/1 43/13/1 44/14/1
f 45/15/1 46/16/1 47/17/1 48/18/1
f 49/11/1 50/12/1 51/13/1 52/14/1
f 53/19/1 54/20/1 55/21/1 56/22/1
f 57/1/1 58/2/1 59/3/1 60/4/1
f 61/1/1 62/2/1 63/3/1 64/4/1
f 65/1/1 66/2/1 67/3/1 68/4/1
f 69/1/1 70/2/1 71/3/1 72/4/1
f 73/23/1 74/24/1 75/25/1 76/26/1
f 77/27/1 78/28/1 79/6/1 80/5/1
f 81/28/1 82/29/1 83/9/1 84/6/1
f 85/23/1 86/24/1 87/25/1 88/26/1
f 89/11/1 90/12/1 91/13/1 92/14/1
f 93/30/1 94/31/1 95/20/1 96/19/1
f 97/31/1 98/1/1 99/4/1 100/20/1
f 101/1/1 102/2/1 103/3/1 104/4/1
f 105/1/1 106/2/1 107/3/1 108/4/1
f 109/1/1 110/2/1 111/3/1 112/4/1
f 113/32/1 114/33/1 115/24/1 116/23/1
f 117/34/1 118/35/1 119/28/1 120/27/1
f 121/35/1 122/36/1 123/29/1 124/28/1
f 125/32/1 126/33/1 127/24/1 128/23/1
f 129/37/1 130/38/1 131/39/1 132/40/1
f 133/19/1 134/20/1 135/21/1 136/22/1
f 137/20/1 138/4/1 139/41/1 140/21/1
f 141/37/1 142/38/1 143/39/1 144/40/1
f 145/37/1 146/38/1 147/39/1 148/40/1
f 149/30/1 150/31/1 151/20/1 152/19/1
f 153/31/1 154/1/1 155/4/1 156/20/1
f 157/1/1 158/2/1 159/3/1 160/4/1
f 161/1/1 162/2/1 163/3/1 164/4/1
f 165/42/1 166/43/1 167/44/1 168/45/1
f 169/43/1 170/46/1 171/47/1 172/44/1
f 173/19/1 174/20/1 175/21/1 176/22/1
f 177/20/1 178/4/1 179/41/1 180/21/1
f 181/48/1 182/49/1 183/50/1 184/51/1
f 185/1/1 186/2/1 187/3/1 188/4/1
f 189/37/1 190/38/1 191/39/1 192/40/1
f 193/1/1 194/2/1 195/3/1 196/4/1
f 197/1/1 198/2/1 199/3/1 200/4/1
f 201/37/1 202/38/1 203/39/1 204/40/1
f 205/52/1 206/40/1 207/53/1 208/54/1
f 209/55/1 210/56/1 211/43/1 212/42/1
f 213/56/1 214/57/1 215/46/1 216/43/1
f 217/58/1 218/59/1 219/32/1 220/60/1
f 221/30/1 222/31/1 223/20/1 224/19/1
f 225/31/1 226/1/1 227/4/1 228/20/1
f 229/1/1 230/2/1 231/3/1 232/4/1
f 233/37/1 234/38/1 235/39/1 236/40/1
f 237/37/1 238/38/1 239/39/1 240/40/1
f 241/1/1 242/2/1 243/3/1 244/4/1
f 245/1/1 246/2/1 247/3/1 248/4/1
f 249/52/1 250/40/1 251/53/1 252/54/1
f 253/1/1 254/2/1 255/3/1 256/4/1
f 257/1/1 258/2/1 259/3/1 260/4/1
f 261/37/1 262/38/1 263/39/1 264/40/1
f 265/1/1 266/2/1 267/3/1 268/4/1
f 269/48/1 270/49/1 271/50/1 272/51/1
f 273/1/1 274/2/1 275/3/1 276/4/1
f 277/1/1 278/2/1 279/3/1 280/4/1
f 281/1/1 282/2/1 283/3/1 284/4/1
f 285/1/1 286/2/1 287/3/1 288/4/1
f 289/37/1 290/38/1 291/39/1 292/40/1
f 293/1/1 294/2/1 295/3/1 296/4/1
f 297/1/1 298/2/1 299/3/1 300/4/1
f 301/1/1 302/2/1 303/3/1 304/4/1
f 305/1/1 306/2/1 307/3/1 308/4/1
f 309/1/1 310/2/1 311/3/1 312/4/1
f 313/1/1 314/2/1 315/3/1 316/4/1
f 317/1/1 318/2/1 319/3/1 320/4/1
f 321/61/1 322/37/1 323/40/1 324/52/1
f 325/19/1 326/20/1 327/21/1 328/22/1
f 329/20/1 330/4/1 331/41/1 332/21/1
f 333/1/1 334/2/1 335/3/1 336/4/1
f 337/1/1 338/2/1 339/3/1 340/4/1
f 341/1/1 342/2/1 343/3/1 344/4/1
f 345/1/1 346/2/1 347/3/1 348/4/1
f 349/30/1 350/31/1 351/20/1 352/19/1
f 353/31/1 354/1/1 355/4/1 356/20/1
f 357/62/1 358/63/1 359/64/1 360/65/1
f 361/1/1 362/2/1 363/3/1 364/4/1
f 365/1/1 366/2/1 367/3/1 368/4/1
f 369/1/1 370/2/1 371/3/1 372/4/1
f 373/1/1 374/2/1 375/3/1 376/4/1
f 377/1/1 378/2/1 379/3/1 380/4/1
f 381/1/1 382/2/1 383/3/1 384/4/1
f 385/1/1 386/2/1 387/3/1 388/4/1
f 389/1/1 390/2/1 391/3/1 392/4/1
f 393/1/1 394/2/1 395/3/1 396/4/1
f 397/1/1 398/2/1 399/3/1 400/4/1
f 401/1/1 402/2/1 403/3/1 404/4/1
f 405/1/1 406/2/1 407/3/1 408/4/1
f 409/1/1 410/2/1 411/3/1 412/4/1
f 413/1/1 414/2/1 415/3/1 416/4/1
f 417/1/1 418/2/1 419/3/1 420/4/1
f 421/1/1 422/2/1 423/3/1 424/4/1
f 425/1/1 426/2/1 427/3/1 428/4/1
f 429/1/1 430/2/1 431/3/1 432/4/1
f 433/1/1 434/2/1 435/3/1 436/4/1
f 437/1/1 438/2/1 439/3/1 440/4/1

