# Tiled2Unity generated file. Do not modify by hand.
# Wavefront file for 'Level2_mesh_0003.obj'

# Vertices (Count = 56)
v -1536 -1344 0
v -1584 -1344 0
v -1584 -1296 0
v -1536 -1296 0
v -1728 -1344 0
v -1776 -1344 0
v -1776 -1296 0
v -1728 -1296 0
v -1536 -1392 0
v -1584 -1392 0
v -1584 -1344 0
v -1536 -1344 0
v -1728 -1392 0
v -1776 -1392 0
v -1776 -1344 0
v -1728 -1344 0
v -1536 -1440 0
v -1584 -1440 0
v -1584 -1392 0
v -1536 -1392 0
v -1728 -1440 0
v -1776 -1440 0
v -1776 -1392 0
v -1728 -1392 0
v -1536 -1488 0
v -1584 -1488 0
v -1584 -1440 0
v -1536 -1440 0
v -1728 -1488 0
v -1776 -1488 0
v -1776 -1440 0
v -1728 -1440 0
v -1536 -1536 0
v -1584 -1536 0
v -1584 -1488 0
v -1536 -1488 0
v -1728 -1536 0
v -1776 -1536 0
v -1776 -1488 0
v -1728 -1488 0
v -1536 -1584 0
v -1584 -1584 0
v -1584 -1536 0
v -1536 -1536 0
v -1728 -1584 0
v -1776 -1584 0
v -1776 -1536 0
v -1728 -1536 0
v -1536 -1632 0
v -1584 -1632 0
v -1584 -1584 0
v -1536 -1584 0
v -1728 -1632 0
v -1776 -1632 0
v -1776 -1584 0
v -1728 -1584 0

# Texture cooridinates (Count = 6)
vt 0.375 0.625
vt 0.4375 0.625
vt 0.4375 0.75
vt 0.375 0.75
vt 0.5 0.625
vt 0.5 0.75

# Normal
vn 0 0 -1

# Mesh description
g Level2_mesh_0003

# Faces
f 1/1/1 2/2/1 3/3/1 4/4/1
f 5/2/1 6/5/1 7/6/1 8/3/1
f 9/1/1 10/2/1 11/3/1 12/4/1
f 13/2/1 14/5/1 15/6/1 16/3/1
f 17/1/1 18/2/1 19/3/1 20/4/1
f 21/2/1 22/5/1 23/6/1 24/3/1
f 25/1/1 26/2/1 27/3/1 28/4/1
f 29/2/1 30/5/1 31/6/1 32/3/1
f 33/1/1 34/2/1 35/3/1 36/4/1
f 37/2/1 38/5/1 39/6/1 40/3/1
f 41/1/1 42/2/1 43/3/1 44/4/1
f 45/2/1 46/5/1 47/6/1 48/3/1
f 49/1/1 50/2/1 51/3/1 52/4/1
f 53/2/1 54/5/1 55/6/1 56/3/1

